<svg id="Capa_1" enable-background="new 0 0 512.002 512.002" height="512" viewBox="0 0 512.002 512.002" width="512" xmlns="http://www.w3.org/2000/svg"><g><path d="m40 286.001v10c0 5.523 4.478 10 10 10h32.457l33.786 118.232c3.655 12.816 15.517 21.768 28.847 21.768h18.4c19.93 0 34.326-19.06 28.845-38.238l-29.077-101.762h26.742c5.522 0 10-4.477 10-10v-9.649c73.556 4.878 153.777 61.164 172 74.632v15.017c0 5.523 4.478 10 10 10h40c5.522 0 10-4.477 10-10v-105c0-5.523-4.478-10-10-10s-10 4.477-10 10v95h-20v-280h20v95c0 5.523 4.478 10 10 10s10-4.477 10-10v-105c0-5.523-4.478-10-10-10h-40c-5.522 0-10 4.477-10 10v15.017c-18.229 13.472-98.446 69.755-172 74.632v-9.649c0-5.523-4.478-10-10-10h-140c-5.522 0-10 4.477-10 10v10c-22.056 0-40 17.944-40 40v40c0 22.056 17.944 40 40 40zm160-100.308c68.985-4.043 140.654-48.293 172-70.03v220.677c-31.346-21.737-103.015-65.987-172-70.03zm-26.896 227.566c1.824 6.381-2.97 12.742-9.614 12.742h-18.4c-4.442 0-8.396-2.982-9.614-7.257l-32.218-112.743h39.199zm-113.104-247.258h120v120h-120zm-40 40c0-11.028 8.972-20 20-20v80c-11.028 0-20-8.972-20-20z"/><path d="m502 206.001h-40c-5.522 0-10 4.477-10 10s4.478 10 10 10h40c5.522 0 10-4.477 10-10s-4.478-10-10-10z"/><path d="m506.472 287.057-40-20c-4.94-2.471-10.946-.468-13.416 4.472s-.468 10.947 4.473 13.417l40 20c4.94 2.47 10.947.466 13.416-4.472 2.469-4.941.467-10.948-4.473-13.417z"/><path d="m453.056 160.473c2.474 4.948 8.488 6.938 13.416 4.472l40-20c4.94-2.47 6.942-8.477 4.473-13.417-2.471-4.94-8.481-6.943-13.416-4.472l-40 20c-4.941 2.47-6.943 8.477-4.473 13.417z"/><path d="m90 186.001c-5.522 0-10 4.477-10 10v40c0 5.523 4.478 10 10 10s10-4.477 10-10v-40c0-5.523-4.478-10-10-10z"/><path d="m130 186.001c-5.522 0-10 4.477-10 10v40c0 5.523 4.478 10 10 10s10-4.477 10-10v-40c0-5.523-4.478-10-10-10z"/><circle cx="422" cy="226.001" r="10"/></g></svg>